<?xml version="1.0" standalone="no"?>
<!DOCTYPE svg PUBLIC "-//W3C//DTD SVG 20010904//EN"
 "http://www.w3.org/TR/2001/REC-SVG-20010904/DTD/svg10.dtd">
<svg version="1.0" xmlns="http://www.w3.org/2000/svg"
 width="2269.000000pt" height="856.000000pt" viewBox="0 0 2269.000000 856.000000"
 preserveAspectRatio="xMidYMid meet">

<g transform="translate(0.000000,856.000000) scale(0.100000,-0.100000)"
fill="#000000" stroke="none">
<path d="M270 3380 l0 -1650 1375 0 1375 0 0 420 0 420 -830 0 -830 0 0 215 0
215 700 0 700 0 0 405 0 405 -700 0 -700 0 0 190 0 190 798 2 797 3 3 418 2
417 -1345 0 -1345 0 0 -1650z"/>
<path d="M3450 3380 l0 -1651 948 4 c1012 4 997 3 1240 56 321 70 627 229 841
436 229 222 362 465 432 795 20 93 23 134 24 355 0 221 -3 263 -23 362 -39
193 -94 340 -187 498 -148 251 -357 440 -640 580 -160 79 -241 109 -402 150
-236 59 -204 58 -1260 62 l-973 4 0 -1651z m1691 779 c348 -35 589 -241 660
-564 9 -37 13 -121 13 -220 -1 -176 -17 -262 -73 -380 -83 -177 -249 -309
-458 -367 -71 -19 -109 -22 -400 -26 l-323 -4 0 779 c0 429 3 783 7 786 10 11
461 8 574 -4z"/>
<path d="M7320 4078 c0 -978 4 -1097 41 -1280 112 -558 487 -948 1041 -1083
319 -78 749 -78 1058 0 559 140 927 521 1040 1074 38 186 40 257 40 1259 l0
982 -544 0 -545 0 -4 -982 c-3 -957 -4 -986 -25 -1076 -27 -122 -69 -210 -131
-275 -92 -98 -193 -137 -353 -137 -155 0 -264 43 -351 140 -55 62 -89 128
-119 235 l-23 80 -3 1008 -3 1007 -559 0 -560 0 0 -952z"/>
<path d="M11060 3380 l0 -1650 555 0 555 0 0 530 0 530 690 0 690 0 0 420 0
420 -690 0 -690 0 0 280 0 280 788 2 787 3 3 418 2 417 -1345 0 -1345 0 0
-1650z"/>
<path d="M14365 3433 c-384 -879 -709 -1622 -722 -1650 l-23 -53 568 0 567 0
110 288 111 287 628 0 628 0 111 -287 111 -288 574 0 c477 0 573 2 570 14 -2
7 -325 749 -718 1649 l-715 1636 -551 1 -551 0 -698 -1597z m1404 80 c83 -215
151 -394 151 -397 0 -3 -142 -6 -315 -6 -186 0 -315 4 -315 9 0 5 67 182 148
393 82 211 152 392 156 403 6 17 9 17 15 5 5 -8 77 -191 160 -407z"/>
<path d="M17790 3380 l0 -1650 555 0 555 0 0 1650 0 1650 -555 0 -555 0 0
-1650z"/>
<path d="M19440 3380 l0 -1650 555 0 555 0 0 415 0 415 153 0 153 0 279 -415
280 -414 597 -1 598 0 -74 107 c-337 493 -616 906 -616 913 0 5 9 12 21 15 91
29 329 241 413 368 224 341 245 848 50 1227 -188 364 -570 595 -1094 660 -53
6 -416 10 -977 10 l-893 0 0 -1650z m1694 776 c125 -35 196 -92 245 -196 23
-50 26 -67 26 -175 0 -111 -2 -124 -28 -177 -35 -71 -110 -140 -182 -167 -88
-33 -167 -41 -412 -41 l-233 0 0 383 c0 211 3 387 8 391 4 5 122 6 262 3 195
-3 269 -8 314 -21z"/>
<path d="M21705 1220 c-132 -24 -229 -73 -303 -155 -67 -73 -92 -140 -92 -249
0 -105 19 -162 77 -226 65 -73 166 -120 355 -165 208 -49 260 -83 187 -121
-42 -21 -171 -21 -266 1 -40 9 -111 36 -159 61 -48 24 -90 41 -94 37 -4 -5
-35 -73 -70 -152 l-64 -144 25 -20 c13 -11 56 -35 96 -54 l72 -33 317 0 c308
0 318 1 362 23 73 36 138 101 174 175 31 62 33 74 33 167 0 86 -3 107 -24 149
-57 115 -151 170 -398 232 -174 43 -223 62 -223 88 0 41 102 70 200 56 84 -12
138 -29 213 -67 38 -19 70 -33 72 -31 1 2 31 72 65 157 62 149 63 154 44 168
-34 27 -125 64 -208 84 -92 23 -311 34 -391 19z m308 -85 c86 -15 192 -49 202
-65 4 -6 -49 -146 -60 -158 -2 -2 -37 8 -79 22 -139 48 -295 53 -375 11 -38
-19 -71 -69 -71 -108 0 -82 59 -119 265 -166 230 -52 308 -93 358 -191 26 -49
28 -63 24 -130 -4 -89 -26 -137 -89 -196 -49 -48 -98 -74 -183 -100 -89 -28
-310 -26 -426 3 -108 27 -203 68 -196 85 2 7 19 45 37 84 l32 72 61 -28 c205
-91 470 -83 515 15 26 57 5 119 -51 153 -18 12 -111 41 -208 65 -187 48 -254
76 -308 129 -51 49 -71 101 -71 184 0 124 64 221 185 279 111 52 279 68 438
40z"/>
<path d="M13593 803 c3 -350 6 -417 21 -468 39 -133 121 -243 227 -304 l54
-31 286 0 286 0 59 38 c109 71 179 172 214 308 18 70 20 111 20 471 l0 393
-200 0 -200 0 0 -360 c0 -230 -4 -378 -11 -412 -40 -184 -298 -184 -338 0 -7
34 -11 182 -11 412 l0 360 -206 0 -206 0 5 -407z m327 -3 c0 -199 4 -349 11
-380 15 -69 64 -139 119 -170 38 -21 58 -25 130 -25 126 1 187 40 237 151 16
34 18 80 21 397 l3 357 120 0 119 0 0 -339 c0 -186 -4 -360 -9 -387 -36 -191
-162 -320 -350 -360 -132 -28 -294 -12 -407 40 -69 32 -152 115 -188 187 -46
96 -55 180 -56 530 0 174 3 319 7 322 3 4 60 7 125 7 l118 0 0 -330z"/>
<path d="M14980 606 l0 -606 205 0 205 0 0 134 0 133 148 6 c81 3 176 13 211
22 183 45 320 179 351 344 48 255 -71 456 -318 539 -76 26 -80 26 -439 30
l-363 4 0 -606z m713 509 c109 -23 181 -60 241 -126 70 -76 91 -134 91 -254
-1 -77 -5 -99 -29 -152 -31 -69 -97 -138 -164 -172 -80 -41 -150 -53 -339 -58
l-183 -6 0 -149 0 -149 -122 3 -123 3 -3 525 c-1 289 0 531 3 538 7 19 536 17
628 -3z"/>
<path d="M15310 739 l0 -211 158 4 c141 3 162 5 205 27 68 33 98 82 104 169 4
56 1 74 -19 112 -25 49 -70 84 -127 100 -20 5 -100 10 -178 10 l-143 0 0 -211z
m313 117 c55 -23 72 -51 72 -116 0 -101 -47 -130 -212 -130 l-93 0 0 130 0
130 100 0 c63 0 113 -5 133 -14z"/>
<path d="M16270 605 l0 -606 433 3 434 3 88 44 c207 102 325 299 325 541 0
308 -190 536 -500 600 -83 17 -137 20 -437 20 l-343 0 0 -605z m794 501 c147
-42 268 -128 333 -238 41 -67 73 -190 73 -278 0 -88 -32 -211 -73 -278 -43
-73 -133 -154 -210 -191 -128 -61 -152 -64 -509 -69 l-328 -3 0 541 0 541 328
-3 c271 -4 337 -7 386 -22z"/>
<path d="M16600 590 l0 -360 145 0 c79 0 168 5 197 11 118 25 199 87 247 188
23 49 26 68 26 161 0 93 -3 112 -26 161 -48 101 -135 167 -251 189 -28 6 -115
10 -194 10 l-144 0 0 -360z m388 250 c65 -28 117 -87 137 -154 44 -147 -14
-292 -137 -346 -44 -20 -75 -24 -180 -28 l-128 -4 0 282 0 282 128 -4 c105 -4
136 -8 180 -28z"/>
<path d="M17890 748 c-112 -255 -232 -527 -266 -606 l-63 -142 212 0 212 0 39
100 39 100 217 0 217 0 39 -100 39 -100 212 0 c117 0 213 3 213 8 0 4 -118
275 -263 602 l-263 595 -190 3 -190 2 -204 -462z m758 -140 c127 -288 234
-531 238 -540 6 -17 -4 -18 -118 -18 l-124 0 -45 113 -45 112 -274 0 -274 0
-45 -112 -45 -113 -118 0 c-65 0 -118 4 -118 9 0 7 455 1044 467 1064 2 4 64
7 137 7 l133 0 231 -522z"/>
<path d="M18173 695 l-101 -255 209 0 209 0 -18 43 c-9 24 -55 139 -102 255
-47 116 -87 212 -90 212 -3 0 -51 -115 -107 -255z m154 -70 l41 -105 -88 0
-88 0 41 105 c23 58 44 105 47 105 3 0 24 -47 47 -105z"/>
<path d="M18930 1040 l0 -170 175 0 175 0 0 -435 0 -435 205 0 205 0 0 435 0
435 175 0 175 0 0 170 0 170 -555 0 -555 0 0 -170z m1030 0 l0 -90 -175 0
-175 0 0 -450 0 -451 -122 3 -123 3 -3 448 -2 447 -175 0 -175 0 0 90 0 90
475 0 475 0 0 -90z"/>
<path d="M20170 605 l0 -605 505 0 505 0 0 150 0 150 -305 0 -305 0 0 70 0 70
255 0 255 0 0 160 0 160 -255 0 -255 0 0 60 0 60 290 0 290 0 0 165 0 165
-490 0 -490 0 0 -605z m900 440 l0 -85 -290 0 -290 0 0 -140 0 -140 255 0 255
0 0 -80 0 -80 -255 0 -255 0 0 -150 0 -150 305 0 306 0 -3 -82 -3 -83 -422 -3
-423 -2 0 540 0 540 410 0 410 0 0 -85z"/>
</g>
</svg>
